<mxfile host="app.diagrams.net" agent="Mozilla/5.0 (Windows NT 10.0; Win64; x64) AppleWebKit/537.36 (KHTML, like Gecko) Chrome/129.0.0.0 Safari/537.36" version="24.7.12">
  <diagram name="Page-1" id="YMxAaQkflvhzril7LADW">
    <mxGraphModel dx="916" dy="773" grid="1" gridSize="10" guides="1" tooltips="1" connect="1" arrows="1" fold="1" page="0" pageScale="1" pageWidth="827" pageHeight="1169" math="0" shadow="0">
      <root>
        <mxCell id="0" />
        <mxCell id="1" parent="0" />
        <mxCell id="VvPa4XxgzULlmQNP8djj-9" style="edgeStyle=none;curved=1;rounded=0;orthogonalLoop=1;jettySize=auto;html=1;exitX=0;exitY=0.5;exitDx=0;exitDy=0;entryX=1;entryY=0.5;entryDx=0;entryDy=0;fontSize=12;startSize=8;endSize=8;" edge="1" parent="1" source="VvPa4XxgzULlmQNP8djj-1" target="VvPa4XxgzULlmQNP8djj-2">
          <mxGeometry relative="1" as="geometry" />
        </mxCell>
        <mxCell id="VvPa4XxgzULlmQNP8djj-1" value="Core" style="rounded=0;whiteSpace=wrap;html=1;" vertex="1" parent="1">
          <mxGeometry x="40" y="120" width="40" height="40" as="geometry" />
        </mxCell>
        <mxCell id="VvPa4XxgzULlmQNP8djj-10" style="edgeStyle=orthogonalEdgeStyle;curved=1;rounded=0;orthogonalLoop=1;jettySize=auto;html=1;exitX=0.5;exitY=0;exitDx=0;exitDy=0;entryX=0;entryY=0.5;entryDx=0;entryDy=0;fontSize=12;startSize=8;endSize=8;" edge="1" parent="1" source="VvPa4XxgzULlmQNP8djj-2" target="VvPa4XxgzULlmQNP8djj-6">
          <mxGeometry relative="1" as="geometry" />
        </mxCell>
        <mxCell id="VvPa4XxgzULlmQNP8djj-2" value="Core" style="rounded=0;whiteSpace=wrap;html=1;" vertex="1" parent="1">
          <mxGeometry x="-120" y="120" width="40" height="40" as="geometry" />
        </mxCell>
        <mxCell id="VvPa4XxgzULlmQNP8djj-20" style="edgeStyle=none;curved=1;rounded=0;orthogonalLoop=1;jettySize=auto;html=1;exitX=0.75;exitY=0;exitDx=0;exitDy=0;entryX=0.5;entryY=1;entryDx=0;entryDy=0;fontSize=12;startSize=8;endSize=8;startArrow=classic;startFill=1;" edge="1" parent="1" source="VvPa4XxgzULlmQNP8djj-3" target="VvPa4XxgzULlmQNP8djj-5">
          <mxGeometry relative="1" as="geometry" />
        </mxCell>
        <mxCell id="VvPa4XxgzULlmQNP8djj-21" style="edgeStyle=none;curved=1;rounded=0;orthogonalLoop=1;jettySize=auto;html=1;exitX=0.25;exitY=0;exitDx=0;exitDy=0;entryX=0.5;entryY=1;entryDx=0;entryDy=0;fontSize=12;startSize=8;endSize=8;startArrow=classic;startFill=1;" edge="1" parent="1" source="VvPa4XxgzULlmQNP8djj-3" target="VvPa4XxgzULlmQNP8djj-4">
          <mxGeometry relative="1" as="geometry" />
        </mxCell>
        <mxCell id="VvPa4XxgzULlmQNP8djj-3" value="Memory IO Unit" style="rounded=0;whiteSpace=wrap;html=1;" vertex="1" parent="1">
          <mxGeometry x="-120" y="-120" width="80" height="40" as="geometry" />
        </mxCell>
        <mxCell id="VvPa4XxgzULlmQNP8djj-4" value="MALL $" style="rounded=0;whiteSpace=wrap;html=1;" vertex="1" parent="1">
          <mxGeometry x="-180" y="-240" width="80" height="40" as="geometry" />
        </mxCell>
        <mxCell id="VvPa4XxgzULlmQNP8djj-5" value="Memory" style="rounded=0;whiteSpace=wrap;html=1;" vertex="1" parent="1">
          <mxGeometry x="-60" y="-240" width="80" height="40" as="geometry" />
        </mxCell>
        <mxCell id="VvPa4XxgzULlmQNP8djj-8" style="edgeStyle=orthogonalEdgeStyle;rounded=0;orthogonalLoop=1;jettySize=auto;html=1;exitX=1;exitY=0.5;exitDx=0;exitDy=0;entryX=0.5;entryY=0;entryDx=0;entryDy=0;fontSize=12;startSize=8;endSize=8;elbow=vertical;curved=1;" edge="1" parent="1" source="VvPa4XxgzULlmQNP8djj-6" target="VvPa4XxgzULlmQNP8djj-1">
          <mxGeometry relative="1" as="geometry" />
        </mxCell>
        <mxCell id="VvPa4XxgzULlmQNP8djj-15" style="edgeStyle=none;curved=1;rounded=0;orthogonalLoop=1;jettySize=auto;html=1;exitX=0.25;exitY=0;exitDx=0;exitDy=0;entryX=0.5;entryY=1;entryDx=0;entryDy=0;fontSize=12;startSize=8;endSize=8;startArrow=classic;startFill=1;" edge="1" parent="1" source="VvPa4XxgzULlmQNP8djj-6" target="VvPa4XxgzULlmQNP8djj-3">
          <mxGeometry relative="1" as="geometry" />
        </mxCell>
        <mxCell id="VvPa4XxgzULlmQNP8djj-16" style="edgeStyle=none;curved=1;rounded=0;orthogonalLoop=1;jettySize=auto;html=1;exitX=0.75;exitY=0;exitDx=0;exitDy=0;entryX=0.5;entryY=1;entryDx=0;entryDy=0;fontSize=12;startSize=8;endSize=8;startArrow=classic;startFill=1;" edge="1" parent="1" source="VvPa4XxgzULlmQNP8djj-6" target="VvPa4XxgzULlmQNP8djj-7">
          <mxGeometry relative="1" as="geometry" />
        </mxCell>
        <mxCell id="VvPa4XxgzULlmQNP8djj-6" value="System Agent" style="rounded=0;whiteSpace=wrap;html=1;" vertex="1" parent="1">
          <mxGeometry x="-60" width="80" height="40" as="geometry" />
        </mxCell>
        <mxCell id="VvPa4XxgzULlmQNP8djj-7" value="MMIO&lt;div&gt;Unit&lt;/div&gt;" style="rounded=0;whiteSpace=wrap;html=1;" vertex="1" parent="1">
          <mxGeometry y="-120" width="80" height="40" as="geometry" />
        </mxCell>
        <mxCell id="VvPa4XxgzULlmQNP8djj-12" value="NOC" style="text;html=1;align=center;verticalAlign=middle;whiteSpace=wrap;rounded=0;fontSize=12;" vertex="1" parent="1">
          <mxGeometry x="-130" y="50" width="30" height="30" as="geometry" />
        </mxCell>
        <mxCell id="VvPa4XxgzULlmQNP8djj-13" value="NOC" style="text;html=1;align=center;verticalAlign=middle;whiteSpace=wrap;rounded=0;fontSize=12;" vertex="1" parent="1">
          <mxGeometry x="60" y="50" width="30" height="30" as="geometry" />
        </mxCell>
        <mxCell id="VvPa4XxgzULlmQNP8djj-14" value="NOC" style="text;html=1;align=center;verticalAlign=middle;whiteSpace=wrap;rounded=0;fontSize=12;" vertex="1" parent="1">
          <mxGeometry x="-35" y="140" width="30" height="30" as="geometry" />
        </mxCell>
      </root>
    </mxGraphModel>
  </diagram>
</mxfile>
